<?xml version="1.0" encoding="UTF-8"?>
<svg id="Layer_1" xmlns="http://www.w3.org/2000/svg" version="1.1" viewBox="0 0 552 96">
  <!-- Generator: Adobe Illustrator 29.3.1, SVG Export Plug-In . SVG Version: 2.1.0 Build 151)  -->
  <defs>
    <style>
      .st0 {
        fill: #1eafe5;
      }

      .st1 {
        fill: #17457b;
      }

      .st2 {
        fill: #1f66af;
      }

      .st3 {
        fill: #0f1528;
      }
    </style>
  </defs>
  <path class="st3" d="M182.8,25c-.7-13.4-11.9-23.7-24.8-23.7h-45.4v82.3h45.4c13,0,24.1-10.3,24.8-23.7.3-6.6-1.8-12.7-5.5-17.4,3.7-4.7,5.9-10.8,5.5-17.4ZM130.2,19.6h28.4c3.7,0,6.6,3.1,6.6,6.9s-3,6.9-6.6,6.9h-28.4v-13.7ZM130.2,65.3v-13.7h28.4c3.7,0,6.6,3.1,6.6,6.9s-3,6.9-6.6,6.9h-28.4Z"/>
  <path class="st2" d="M11.6,4.5l16.2,15.1H5.6c-.1-.7-.2-1.5-.2-2.3,0-5.2,2.4-9.9,6.2-12.8h0Z"/>
  <path class="st1" d="M71.5,65.3c.1.7.2,1.5.2,2.3,0,5.2-2.4,9.9-6.2,12.8l-16.2-15.1h22.2Z"/>
  <path class="st3" d="M71.5,65.3h-22.2L10.4,29c-2.5-2.4-4.3-5.7-4.8-9.4h22.2l38.5,35.9c2.8,2.5,4.6,5.9,5.2,9.8h0Z"/>
  <path class="st2" d="M65.5,80.4c-2.6,2-5.8,3.2-9.3,3.2H1.4l8.2-18.3h39.7l16.2,15.1Z"/>
  <path class="st0" d="M71.7,1.3l-8.2,18.3H27.8L11.6,4.5c2.6-2,5.8-3.2,9.3-3.2h50.7Z"/>
  <path class="st3" d="M252,55.5l-38.5-35.9h35.7l8.2-18.3h-50.7c-3.5,0-6.7,1.2-9.3,3.2-3.7,2.9-6.2,7.6-6.2,12.8s0,1.5.2,2.3c.5,3.7,2.2,7,4.8,9.4l38.9,36.3h-39.7l-8.2,18.3h54.8c3.5,0,6.7-1.2,9.3-3.2,3.8-2.9,6.2-7.6,6.2-12.8s0-1.5-.2-2.3c-.5-3.9-2.4-7.4-5.2-9.8h0Z"/>
  <path class="st3" d="M99.3,1.3h-17.7v82.3h17.7V1.3Z"/>
  <path class="st3" d="M274.8,70.7c1,.6,1.8,1.5,2.4,2.5.6,1.1.9,2.2.9,3.5s-.3,2.4-.9,3.5c-.6,1.1-1.4,1.9-2.4,2.5-1,.6-2.1.9-3.3.9s-2.3-.3-3.4-.9c-1-.6-1.8-1.5-2.4-2.5-.6-1.1-.9-2.2-.9-3.5s.3-2.4.9-3.5c.6-1.1,1.4-1.9,2.4-2.5,1-.6,2.1-.9,3.4-.9s2.3.3,3.3.9ZM268.9,72.1c-.8.5-1.4,1.1-1.9,1.9-.5.8-.7,1.7-.7,2.7s.2,1.8.7,2.6c.5.8,1.1,1.4,1.9,1.9.8.5,1.6.7,2.6.7s1.8-.2,2.5-.7c.8-.5,1.4-1.1,1.9-1.9.5-.8.7-1.7.7-2.6s-.2-1.9-.7-2.7c-.5-.8-1.1-1.4-1.9-1.9-.8-.5-1.6-.7-2.5-.7s-1.8.2-2.6.7ZM272.1,73.3c.6,0,1.1.2,1.5.6.4.4.6.9.6,1.6s-.1.8-.3,1.1c-.2.3-.5.6-.9.8l1.2,2.5h-1.4l-1.1-2.3h-1.4v2.3h-1.2v-6.7h2.9ZM270.4,76.4h1.7c.3,0,.5-.1.7-.3.2-.2.3-.4.3-.7s-.1-.5-.3-.7c-.2-.2-.4-.3-.6-.3h-1.7v2h0Z"/>
  <path class="st3" d="M321.9,11.2c0,2.3-.9,4.6-2.3,6.4-1.7,2.2-4.5,3.5-7.2,3.5h-9.7v12.1h-3.1V1.3h12.8c1.1,0,2.2.2,3.2.6,1.4.5,2.8,1.4,3.8,2.6,1.6,1.8,2.6,4.2,2.6,6.7h0ZM318.7,11.2c0-1.8-.7-3.4-1.9-4.7-1.1-1.2-2.9-2-4.5-2h-9.6v13.5h9.6c1.8,0,3.7-.9,4.9-2.5.9-1.2,1.5-2.7,1.5-4.3Z"/>
  <path class="st3" d="M342.8,33.1v-3.8c-2,3.3-5.1,4.5-9.1,4.5s-7.6-2.8-7.6-7.2,1.2-5.1,4.1-6.6c2.8-1.5,7.3-1.9,12.2-2.7,0-3.8-2.6-5.6-6-5.6s-4.7.5-6.7,3.1l-2-2.2c2.4-3,5.5-4.1,9.2-4.1s4.5.9,6,2.3c2.1,1.9,2.8,4.8,2.8,7.6v14.7h-2.8ZM342.5,20.1c-3.8.6-6.5,1.1-8,1.4-2.9.6-5.2,2.2-5.2,4.8s2,4.6,4.9,4.6,6-1.4,7.3-4.1c.9-1.8.9-3.6.9-6.7h0Z"/>
  <path class="st3" d="M365.7,9v3.1c-1-.4-2.1-.6-3.3-.5-1.8,0-3.5.7-4.6,1.8-2.2,2.1-2.2,4.9-2.2,8.3v11.4h-3.2V9.3h2.8v3.6c.5-.8,1.1-1.5,1.9-2.3,1.5-1.3,3.5-1.9,5.4-2,1.1,0,2.1.1,3.1.4h0Z"/>
  <path class="st3" d="M376.4,24.3c0,2,0,3.2.5,4.2.5,1.1,1.6,1.7,2.8,1.9,1.2.1,2.6,0,3.8-.2v2.9c-1.5.4-3.5.5-4.9.2-2-.4-3.6-1.3-4.4-3.1-.8-1.7-.8-3.4-.8-5.7v-12.4h-4.9v-2.8h4.9V2.6h3.2v6.6h7v2.8h-7v12.3Z"/>
  <path class="st3" d="M409.1,21.6v11.6h-3.2v-11.5c0-3.7-.4-6.8-2.7-8.6-1.2-.9-2.8-1.4-4.5-1.3-1.5,0-2.9.6-3.9,1.5-1.1,1-1.8,2.5-2.1,4.1-.2,1-.3,2.2-.3,3.4v12.3h-3.2V9.3h2.8v3.4c.3-.5.7-1,1.1-1.4,1.5-1.6,3.7-2.4,5.8-2.5,2.3-.2,4.6.3,6.5,1.9,3.2,2.5,3.6,6.7,3.6,11h0Z"/>
  <path class="st3" d="M419.5,28c1.3,1.9,3.6,2.8,5.9,2.8s5.9-1.4,7.7-4.6l2.4,1.6c-2,4-5.7,6-10,6s-6.5-1.3-8.4-3.9c-1.9-2.5-2.6-5.6-2.6-8.6s.7-6.3,2.6-8.8c2-2.6,5-3.8,8.3-3.8s6.3,1.3,8.3,3.8c2,2.7,2.7,6.1,2.5,9.8h-18.5c.1,2.1.6,4.2,1.7,5.7h0ZM419.5,14.4c-1,1.4-1.5,3.1-1.7,4.9h15.2c-.2-1.9-.7-3.6-1.7-4.9-1.3-1.9-3.5-2.8-5.8-2.8-2.3,0-4.6.9-5.9,2.8h0Z"/>
  <path class="st3" d="M455.5,9v3.1c-1-.4-2.1-.6-3.3-.5-1.8,0-3.5.7-4.6,1.8-2.2,2.1-2.2,4.9-2.2,8.3v11.4h-3.2V9.3h2.8v3.6c.5-.8,1.1-1.5,1.9-2.3,1.5-1.3,3.5-1.9,5.4-2,1.1,0,2.1.1,3.1.4h0Z"/>
  <path class="st3" d="M303.1,52.3v3.6h-3.1v-3.6h3.1ZM303.1,60.2v23.9h-3.1v-23.9h3.1Z"/>
  <path class="st3" d="M330.6,72.5v11.6h-3.2v-11.5c0-3.7-.4-6.8-2.7-8.6-1.2-.9-2.8-1.4-4.5-1.3-1.5,0-2.9.6-3.9,1.5-1.1,1-1.8,2.5-2.1,4.1-.2,1-.3,2.2-.3,3.4v12.3h-3.2v-23.9h2.8v3.4c.3-.5.7-1,1.1-1.4,1.5-1.6,3.7-2.4,5.8-2.5,2.3-.2,4.6.3,6.5,1.9,3.2,2.5,3.6,6.7,3.6,11h0Z"/>
  <path class="st3" d="M370.6,62.1c0,2.3-.9,4.6-2.3,6.4-1.7,2.2-4.5,3.5-7.2,3.5h-9.7v12.1h-3.1v-31.8h12.8c1.1,0,2.2.2,3.2.6,1.4.5,2.8,1.4,3.8,2.6,1.6,1.8,2.6,4.2,2.6,6.7h0ZM367.3,62.1c0-1.8-.7-3.4-1.9-4.7-1.1-1.2-2.9-2-4.5-2h-9.6v13.5h9.6c1.8,0,3.7-.9,4.9-2.5.9-1.2,1.5-2.7,1.5-4.3Z"/>
  <path class="st3" d="M391.4,84.1v-3.8c-2,3.3-5.1,4.5-9.1,4.5s-7.6-2.8-7.6-7.2,1.2-5.1,4.1-6.6c2.8-1.5,7.3-1.9,12.2-2.7,0-3.8-2.6-5.6-6-5.6s-4.7.5-6.7,3.1l-2-2.2c2.4-3,5.5-4.1,9.2-4.1s4.5.9,6,2.3c2.1,1.9,2.8,4.8,2.8,7.6v14.7h-2.8ZM391.1,71c-3.8.6-6.5,1.1-8,1.4-2.9.6-5.2,2.2-5.2,4.8s2,4.6,4.9,4.6,6-1.4,7.3-4.1c.9-1.8.9-3.6.9-6.7h0Z"/>
  <path class="st3" d="M419.8,60.2l-10.6,28.5c-.9,2.4-1.9,4-3.1,4.9-1.2.9-2.5,1-4,1h-.6v-3.2h.8c.9.1,1.7,0,2.3-.4.9-.7,1.5-2.1,3-6.3l-10-24.5h3.2l8.2,20.4,7.5-20.3h3.2Z"/>
  <path class="st3" d="M455,69.4v14.7h-3.1v-14.5c0-2.7-.1-4.2-1.9-5.7-.9-.8-2.1-1.3-3.3-1.3s-3.2.8-4.2,2c-1.1,1.3-1.2,2.7-1.2,4.2v15.4h-3.1v-14.5c0-2.7,0-4.2-1.8-5.7-.9-.8-2.1-1.3-3.4-1.3s-3.2.8-4.2,2c-1,1.3-1.2,2.7-1.2,4.2v15.4h-3.2v-23.9h2.8v2.6c1.4-2.1,3.9-3.2,6.4-3.2s3.6.5,5,1.8c.9.7,1.4,1.5,1.8,2.3l.4-.6c1.4-2.2,3.9-3.4,6.5-3.4s3.6.5,5,1.8c2.5,2.2,2.6,4.6,2.6,8h0Z"/>
  <path class="st3" d="M465.5,78.9c1.3,1.9,3.6,2.8,5.9,2.8s5.9-1.4,7.7-4.6l2.4,1.6c-2,4-5.7,6-10,6s-6.5-1.3-8.4-3.9c-1.9-2.5-2.6-5.6-2.6-8.6s.7-6.3,2.6-8.8c2-2.6,5-3.8,8.3-3.8s6.3,1.3,8.3,3.8c2,2.7,2.7,6.1,2.5,9.8h-18.5c.1,2.1.6,4.2,1.7,5.7h0ZM465.5,65.3c-1,1.4-1.5,3.1-1.7,4.9h15.2c-.2-1.9-.7-3.6-1.7-4.9-1.3-1.9-3.5-2.8-5.8-2.8-2.3,0-4.6.9-5.9,2.8h0Z"/>
  <path class="st3" d="M507.3,72.5v11.6h-3.2v-11.5c0-3.7-.4-6.8-2.7-8.6-1.2-.9-2.8-1.4-4.5-1.3-1.5,0-2.9.6-3.9,1.5-1.1,1-1.8,2.5-2.1,4.1-.2,1-.3,2.2-.3,3.4v12.3h-3.2v-23.9h2.8v3.4c.3-.5.7-1,1.1-1.4,1.5-1.6,3.7-2.4,5.8-2.5,2.3-.2,4.6.3,6.5,1.9,3.2,2.5,3.6,6.7,3.6,11h0Z"/>
  <path class="st3" d="M519.6,75.3c0,2,0,3.2.5,4.2.5,1.1,1.6,1.7,2.8,1.9,1.2.1,2.6,0,3.8-.2v2.9c-1.5.4-3.5.5-4.9.2-2-.4-3.6-1.3-4.4-3.1-.8-1.7-.8-3.4-.8-5.7v-12.4h-4.9v-2.8h4.9v-6.6h3.2v6.6h7v2.8h-7v12.3Z"/>
  <path class="st3" d="M547.5,67.2c-.6-1.6-1.6-3-3.1-3.8-1-.6-2.4-.9-3.6-.9-1.3,0-2.5.2-3.5.7-1.1.5-2,1.6-2,2.8s.2,1.6,1.1,2.2c.6.5,1.3.8,2.7,1.2,1.2.4,2.6.8,4.7,1.3,1.6.4,3.2,1.1,4.4,2.2,1.6,1.3,2.4,3,2.4,4.9s-1.1,4.2-2.9,5.3c-1.8,1.2-4.1,1.6-6.3,1.6s-5.8-.8-7.8-3.1c-1.5-1.7-1.9-3.3-2.4-5.4l3-.8c.2,1.4.8,3.1,1.6,4.1,1.4,1.6,3.6,2.2,5.6,2.2s3.6-.4,4.7-1.1c1-.7,1.5-1.7,1.5-2.9s-.4-1.9-1.3-2.5c-.8-.6-1.6-1-3.4-1.5-2.2-.7-3.3-1-4.8-1.4-1.4-.5-3-1.1-4.2-2.3-1.2-1.1-1.6-2.7-1.6-4.1,0-2.4,1.6-4.6,3.8-5.5,1.6-.8,3.3-1,4.9-.9,1.6,0,3.3.4,4.9,1.1,2.2,1.1,4.1,3.5,4.7,5.7l-3,.8h0Z"/>
</svg>