<svg width="76" height="16" viewBox="0 0 76 16" fill="none" xmlns="http://www.w3.org/2000/svg">
<path fill-rule="evenodd" clip-rule="evenodd" d="M7.23561 15.9931L0 0H4.27311L8.48914 10.2813L12.7052 0H16.9551L9.48714 15.9931H7.23561ZM20.5779 15.3908C21.5483 15.7923 22.588 15.9931 23.6971 15.9931C24.7863 15.9931 25.8063 15.7923 26.7569 15.3908C27.7273 14.9691 28.5789 14.3968 29.3117 13.674C30.0642 12.9511 30.6386 12.1078 31.0346 11.144C31.4505 10.1601 31.6585 9.11599 31.6585 8.01163C31.6585 6.88719 31.4505 5.84307 31.0346 4.87926C30.6386 3.91546 30.0642 3.07213 29.3117 2.34927C28.5789 1.60634 27.7273 1.03408 26.7569 0.632497C25.8063 0.210832 24.7863 0 23.6971 0C22.588 0 21.5483 0.210832 20.5779 0.632497C19.6272 1.03408 18.7856 1.60634 18.0528 2.34927C17.32 3.07213 16.7457 3.91546 16.3298 4.87926C15.9139 5.84307 15.706 6.88719 15.706 8.01163C15.706 9.11599 15.9139 10.1601 16.3298 11.144C16.7457 12.1078 17.32 12.9511 18.0528 13.674C18.7856 14.3968 19.6272 14.9691 20.5779 15.3908ZM25.836 12.0174C25.2022 12.3789 24.4893 12.5596 23.6971 12.5596C22.9247 12.5596 22.2117 12.3789 21.5582 12.0174C20.9046 11.6359 20.3798 11.1038 19.9837 10.4211C19.6074 9.73845 19.4193 8.93528 19.4193 8.01163C19.4193 7.0679 19.6074 6.25469 19.9837 5.572C20.3798 4.8893 20.9046 4.36724 21.5582 4.00582C22.2117 3.62431 22.9247 3.43356 23.6971 3.43356C24.4893 3.43356 25.2022 3.62431 25.836 4.00582C26.4895 4.36724 27.0044 4.8893 27.3807 5.572C27.757 6.25469 27.9451 7.0679 27.9451 8.01163C27.9451 8.93528 27.757 9.73845 27.3807 10.4211C27.0044 11.1038 26.4895 11.6359 25.836 12.0174ZM52.6173 15.3606C53.5885 15.7823 54.6507 15.9931 55.8039 15.9931C56.9572 15.9931 57.898 15.8325 58.6264 15.5112C59.375 15.1699 59.9415 14.8285 60.3259 14.4872V11.1741C59.7999 11.5556 59.203 11.8869 58.5353 12.168C57.8677 12.4291 57.0482 12.5596 56.0771 12.5596C55.2071 12.5596 54.4281 12.3588 53.7402 11.9572C53.0725 11.5556 52.5465 11.0135 52.162 10.3308C51.7776 9.64809 51.5854 8.88508 51.5854 8.04175C51.5854 7.17834 51.7776 6.40529 52.162 5.72259C52.5667 5.0399 53.113 4.49776 53.8009 4.09617C54.4888 3.69459 55.2475 3.49379 56.0771 3.49379C57.0482 3.49379 57.8677 3.63435 58.5353 3.91546C59.203 4.17649 59.7999 4.49776 60.3259 4.87926V1.56618C59.9415 1.24492 59.375 0.903567 58.6264 0.54214C57.898 0.180713 56.9572 0 55.8039 0C54.6507 0 53.5885 0.220872 52.6173 0.662616C51.6461 1.08428 50.7963 1.67662 50.068 2.43963C49.3396 3.18256 48.7731 4.03593 48.3684 4.99974C47.984 5.96354 47.7918 6.97755 47.7918 8.04175C47.7918 9.10595 47.984 10.12 48.3684 11.0838C48.7731 12.0275 49.3396 12.8708 50.068 13.6137C50.7963 14.3567 51.6461 14.939 52.6173 15.3606ZM61.4645 0V15.9931H65.1411V10.2813H72.3234V15.9931H76V0H72.3234V6.8542L65.1411 6.8542V0H61.4645ZM39.728 16C38.3778 16 37.1731 15.8521 36.1138 15.3106C35.0752 14.7692 34.2443 13.9987 33.6212 12.9991C33.0188 11.9787 32.7629 10.7709 32.7629 9.37566L32.7632 0H36.4565V8.8134C36.4565 10.042 36.7681 10.9791 37.3912 11.6247C38.0143 12.2494 38.7933 12.5618 39.728 12.5618C40.6627 12.5618 41.4313 12.2494 42.0336 11.6247C42.6568 10.9791 42.9684 10.042 42.9684 8.8134V0H46.8128V9.37566C46.8128 10.7709 46.4268 11.9787 45.8037 12.9991C45.2013 13.9987 44.3704 14.7692 43.3111 15.3106C42.2517 15.8521 41.0574 16 39.728 16Z" fill="#1BAF80"/>
<path fill-rule="evenodd" clip-rule="evenodd" d="M76 0H72.3308L76 8.1101V0ZM60.3223 1.56294V2.5614L60.3262 2.55628V4.87927L60.3223 4.87644C59.7972 4.49618 59.2017 4.17585 58.5356 3.91546C58.0025 3.69098 57.3725 3.55612 56.6458 3.51091V0.0353209C57.4239 0.104025 58.0842 0.272966 58.6267 0.542143C59.3728 0.902351 59.938 1.24262 60.3223 1.56294ZM60.3223 11.1769V14.4907C59.938 14.8308 59.3728 15.171 58.6267 15.5112C58.0842 15.7505 57.4239 15.9007 56.6458 15.9618V12.5437C57.3725 12.5017 58.0025 12.3765 58.5356 12.168C59.2017 11.8876 59.7972 11.5573 60.3223 11.1769ZM46.8129 7.33062V9.38481C46.8112 10.7762 46.4255 11.9809 45.8037 12.9991C45.6571 13.2424 45.497 13.4721 45.3233 13.6883C45.2985 13.6636 45.2738 13.6388 45.2493 13.6137C44.5209 12.8708 43.9544 12.0275 43.5497 11.0838C43.1653 10.12 42.9731 9.10595 42.9731 8.04175C42.9731 6.97755 43.1653 5.96354 43.5497 4.99974C43.9544 4.03593 44.5209 3.18256 45.2493 2.43963C45.7198 1.94672 46.241 1.52503 46.8129 1.17457V7.33062ZM27.9446 1.24618C28.4389 1.55854 28.8946 1.92624 29.3119 2.34927C30.0644 3.07212 30.6388 3.91545 31.0349 4.87926C31.4508 5.84306 31.6587 6.88718 31.6587 8.01162C31.6587 9.11598 31.4508 10.1601 31.0349 11.144C30.6388 12.1078 30.0644 12.9511 29.3119 13.674C29.2701 13.7152 29.228 13.7558 29.1855 13.796C29.0501 13.6206 28.9225 13.4367 28.8026 13.2443C28.2002 12.2239 27.9443 11.0161 27.9443 9.62087L27.9444 8.12782C27.945 8.0893 27.9454 8.05057 27.9454 8.01162C27.9454 7.97197 27.945 7.93254 27.9444 7.89335L27.9446 1.24618ZM14.278 5.73281L16.9175 0.0800706C16.2349 0.176731 15.5811 0.360858 14.9561 0.632454C14.0055 1.03404 13.1638 1.6063 12.431 2.34923C11.6983 3.07208 11.1239 3.91541 10.708 4.87922C10.2921 5.84303 10.0842 6.88715 10.0842 8.01159C10.0842 9.11595 10.2921 10.1601 10.708 11.144C10.8678 11.5142 11.0509 11.8667 11.2575 12.2014L14.202 5.89546C14.2262 5.84049 14.2516 5.78627 14.278 5.73281Z" fill="#1BAF80"/>
</svg>
