<?xml version="1.0" encoding="UTF-8"?>
<svg xmlns="http://www.w3.org/2000/svg" width="79" height="51" viewBox="0 0 79 51" fill="none">
  <path d="M71.3512 0H7.01835C6.75041 0 6.482 0 6.21454 0.00156736C5.98845 0.00318222 5.76289 0.0056995 5.53733 0.011874C5.04539 0.0252203 4.54924 0.0543352 4.06346 0.141918C3.56991 0.23102 3.11065 0.376357 2.6626 0.605192C2.22213 0.829895 1.81888 1.1238 1.46941 1.47451C1.1198 1.82522 0.826812 2.22907 0.60286 2.6714C0.374694 3.12086 0.229717 3.58171 0.141509 4.07719C0.0537324 4.56464 0.0245144 5.06225 0.0112573 5.55521C0.00519682 5.78148 0.00259746 6.00775 0.00112497 6.23397C-0.000437487 6.50285 8.3331e-05 6.77153 8.3331e-05 7.04088V43.2887C8.3331e-05 43.558 -0.000437487 43.8262 0.00112497 44.0956C0.00259746 44.3218 0.00519682 44.5481 0.0112573 44.7744C0.0245144 45.2669 0.0537324 45.7645 0.141509 46.2518C0.229717 46.7475 0.374694 47.2082 0.60286 47.6577C0.826812 48.1 1.1198 48.5044 1.46941 48.8546C1.81888 49.2058 2.22213 49.4997 2.6626 49.7238C3.11065 49.9533 3.56991 50.0987 4.06346 50.1877C4.54924 50.2747 5.04539 50.3044 5.53733 50.3177C5.76289 50.3228 5.98845 50.3259 6.21454 50.3269C6.482 50.329 6.75041 50.329 7.01835 50.329H71.3512C71.6187 50.329 71.8871 50.329 72.1545 50.3269C72.3801 50.3259 72.6056 50.3228 72.8322 50.3177C73.3231 50.3044 73.8192 50.2747 74.3061 50.1877C74.799 50.0987 75.2584 49.9533 75.7065 49.7238C76.1474 49.4997 76.5495 49.2058 76.8997 48.8546C77.2487 48.5044 77.5417 48.1 77.7662 47.6577C77.9949 47.2082 78.1397 46.7475 78.2275 46.2518C78.3154 45.7645 78.3439 45.2669 78.3572 44.7744C78.3633 44.5481 78.3664 44.3218 78.3674 44.0956C78.3695 43.8262 78.3695 43.558 78.3695 43.2887V7.04088C78.3695 6.77153 78.3695 6.50285 78.3674 6.23397C78.3664 6.00775 78.3633 5.78148 78.3572 5.55521C78.3439 5.06225 78.3154 4.56464 78.2275 4.07719C78.1397 3.58171 77.9949 3.12086 77.7662 2.6714C77.5417 2.22907 77.2487 1.82522 76.8997 1.47451C76.5495 1.1238 76.1474 0.829895 75.7065 0.605192C75.2584 0.376357 74.799 0.23102 74.3061 0.141918C73.8192 0.0543352 73.3231 0.0252203 72.8322 0.011874C72.6056 0.0056995 72.3801 0.00318222 72.1545 0.00156736C71.8871 0 71.6187 0 71.3512 0Z" fill="black"></path>
  <path d="M71.3517 1.67749L72.1431 1.67901C72.3575 1.68053 72.5719 1.68286 72.7875 1.68875C73.1625 1.69891 73.6011 1.71929 74.01 1.79281C74.3655 1.85702 74.6636 1.95468 74.9496 2.10077C75.2321 2.24473 75.4908 2.43339 75.7167 2.6597C75.9435 2.88754 76.1318 3.14753 76.2772 3.43398C76.4221 3.71872 76.5188 4.01633 76.5824 4.37549C76.6555 4.7812 76.6758 5.22244 76.686 5.60093C76.6918 5.81457 76.6946 6.0282 76.6957 6.24692C76.6977 6.51143 76.6977 6.77579 76.6977 7.04082V43.2886C76.6977 43.5536 76.6977 43.8175 76.6956 44.0877C76.6947 44.3013 76.6918 44.5149 76.686 44.7289C76.6758 45.1068 76.6555 45.5478 76.5815 45.9583C76.5188 46.3126 76.4221 46.6102 76.2765 46.8964C76.1315 47.1821 75.9435 47.4418 75.7177 47.6682C75.4905 47.8962 75.2326 48.0843 74.9468 48.2296C74.6628 48.375 74.3653 48.4725 74.0133 48.5361C73.5962 48.6107 73.1391 48.6312 72.7949 48.6405C72.5783 48.6454 72.3628 48.6484 72.142 48.6494C71.8789 48.6514 71.6149 48.6514 71.3517 48.6514H7.01886C7.01536 48.6514 7.01195 48.6514 7.0084 48.6514C6.74827 48.6514 6.48763 48.6514 6.22277 48.6494C6.00682 48.6484 5.79134 48.6455 5.58301 48.6407C5.23094 48.6312 4.77361 48.6107 4.35985 48.5366C4.00489 48.4725 3.70731 48.375 3.41963 48.2277C3.13655 48.0837 2.87883 47.8958 2.65152 47.6674C2.42596 47.4415 2.23851 47.1826 2.09358 46.8964C1.94851 46.6106 1.85145 46.312 1.78763 45.9535C1.71385 45.5438 1.69359 45.1046 1.68346 44.7292C1.67768 44.5143 1.67527 44.2995 1.67389 44.0858L1.67285 43.4551L1.6729 43.2886V7.04082L1.67285 6.8743L1.67385 6.24493C1.67527 6.03001 1.67768 5.81514 1.68346 5.60041C1.69359 5.22467 1.71385 4.78524 1.78824 4.37212C1.85149 4.0169 1.94851 3.71834 2.09434 3.43104C2.23813 3.14706 2.42591 2.88783 2.65266 2.66042C2.8785 2.43377 3.13706 2.24535 3.42195 2.10001C3.70655 1.95463 4.0047 1.85702 4.35966 1.79295C4.76864 1.71924 5.2076 1.69891 5.58354 1.6887C5.79783 1.68286 6.01212 1.68053 6.2248 1.67906L7.01886 1.67749H71.3517Z" fill="white"></path>
  <path d="M21.3952 16.9277C22.0662 16.0857 22.5216 14.9553 22.4015 13.8C21.4192 13.849 20.2205 14.4501 19.5266 15.2927C18.9034 16.0143 18.3519 17.1921 18.4957 18.2989C19.5984 18.3948 20.7 17.746 21.3952 16.9277Z" fill="black"></path>
  <path d="M22.3886 18.5151C20.7873 18.4194 19.4258 19.4268 18.6611 19.4268C17.8959 19.4268 16.7249 18.5633 15.4583 18.5866C13.8098 18.6109 12.2802 19.5459 11.4436 21.033C9.72297 24.0079 10.9895 28.4208 12.6628 30.8437C13.4753 32.0424 14.4546 33.3623 15.745 33.3149C16.9641 33.2669 17.442 32.523 18.9239 32.523C20.4048 32.523 20.8352 33.3149 22.1258 33.2909C23.4641 33.2669 24.3008 32.0916 25.1134 30.8917C26.0455 29.5253 26.4271 28.2059 26.4511 28.1334C26.4271 28.1094 23.8704 27.1255 23.8467 24.1753C23.8226 21.7051 25.854 20.5301 25.9496 20.4572C24.8025 18.7552 23.01 18.5633 22.3886 18.5151Z" fill="black"></path>
  <path d="M36.3315 15.1719C39.8119 15.1719 42.2355 17.5785 42.2355 21.0824C42.2355 24.5989 39.762 27.018 36.2442 27.018H32.3906V33.1655H29.6064V15.1719L36.3315 15.1719ZM32.3906 24.6737H35.5853C38.0093 24.6737 39.389 23.3645 39.389 21.0949C39.389 18.8256 38.0093 17.5287 35.5978 17.5287H32.3906V24.6737Z" fill="black"></path>
  <path d="M42.9629 29.4373C42.9629 27.1427 44.7156 25.7337 47.8235 25.5591L51.4032 25.3472V24.3373C51.4032 22.8783 50.4211 22.0054 48.7806 22.0054C47.2264 22.0054 46.2568 22.7534 46.0209 23.9257H43.4851C43.6342 21.5564 45.6478 19.8107 48.8799 19.8107C52.0496 19.8107 54.0756 21.4941 54.0756 24.1251V33.1656H51.5025V31.0084H51.4406C50.6825 32.4674 49.029 33.39 47.3137 33.39C44.753 33.39 42.9629 31.7939 42.9629 29.4373ZM51.4032 28.2527V27.2178L48.1836 27.4171C46.58 27.5295 45.6727 28.2402 45.6727 29.3625C45.6727 30.5095 46.6174 31.2578 48.0594 31.2578C49.9363 31.2578 51.4032 29.9609 51.4032 28.2527Z" fill="black"></path>
  <path d="M56.5047 37.9912V35.8089C56.7033 35.8587 57.1507 35.8587 57.3746 35.8587C58.6176 35.8587 59.2889 35.3351 59.6989 33.9884C59.6989 33.9634 59.9353 33.1904 59.9353 33.1779L55.2119 20.0474H58.1203L61.4272 30.7214H61.4766L64.7834 20.0474H67.6175L62.7195 33.8511C61.6012 37.031 60.3084 38.0535 57.5986 38.0535C57.3746 38.0535 56.7033 38.0285 56.5047 37.9912Z" fill="black"></path>
</svg>
