<?xml version="1.0" encoding="UTF-8"?>
<svg xmlns="http://www.w3.org/2000/svg" width="81" height="43" viewBox="0 0 81 43" fill="none">
  <path d="M58.8345 0H21.3168C9.59258 0 0 9.56013 0 21.2447C0 32.9293 9.59258 42.4895 21.3168 42.4895H58.8345C70.5587 42.4895 80.1513 32.9293 80.1513 21.2447C80.1513 9.56013 70.5587 0 58.8345 0Z" fill="white"></path>
  <path d="M58.8345 1.72082C61.4671 1.72082 64.0251 2.24132 66.4339 3.26107C68.7681 4.24895 70.8571 5.66172 72.6691 7.4569C74.4704 9.25208 75.8879 11.3447 76.8792 13.671C77.9024 16.0716 78.4246 18.621 78.4246 21.2447C78.4246 23.8685 77.9024 26.4178 76.8792 28.8185C75.8879 31.1448 74.4704 33.2268 72.6691 35.0326C70.8678 36.8278 68.7681 38.2405 66.4339 39.2284C64.0251 40.2482 61.4671 40.7686 58.8345 40.7686H21.3168C18.6842 40.7686 16.1262 40.2482 13.7174 39.2284C11.3832 38.2405 9.29414 36.8278 7.48221 35.0326C5.68094 33.2374 4.26337 31.1448 3.27214 28.8185C2.24893 26.4178 1.72666 23.8685 1.72666 21.2447C1.72666 18.621 2.24893 16.0716 3.27214 13.671C4.26337 11.3447 5.68094 9.26271 7.48221 7.4569C9.28348 5.66172 11.3832 4.24895 13.7174 3.26107C16.1262 2.24132 18.6842 1.72082 21.3168 1.72082H58.8345ZM58.8345 0H21.3168C9.59258 0 0 9.56013 0 21.2447C0 32.9293 9.59258 42.4895 21.3168 42.4895H58.8345C70.5587 42.4895 80.1513 32.9293 80.1513 21.2447C80.1513 9.56013 70.5587 0 58.8345 0Z" fill="#3C4043"></path>
  <path d="M38.2217 22.7531V29.1796H36.1753V13.3098H41.6004C42.9754 13.3098 44.1478 13.7666 45.107 14.6801C46.0876 15.5936 46.5779 16.709 46.5779 18.0261C46.5779 19.3752 46.0876 20.4905 45.107 21.3934C44.1584 22.2963 42.986 22.7425 41.6004 22.7425H38.2217V22.7531ZM38.2217 15.2643V20.7986H41.6431C42.4531 20.7986 43.1352 20.5224 43.6682 19.9807C44.2117 19.4389 44.4889 18.7803 44.4889 18.0368C44.4889 17.3038 44.2117 16.6559 43.6682 16.1141C43.1352 15.5511 42.4638 15.275 41.6431 15.275H38.2217V15.2643Z" fill="#3C4043"></path>
  <path d="M51.9285 17.9624C53.442 17.9624 54.6357 18.3661 55.5097 19.1734C56.3837 19.9807 56.8207 21.0854 56.8207 22.4875V29.1796H54.8702V27.6712H54.7849C53.9429 28.9141 52.8131 29.5302 51.4062 29.5302C50.2018 29.5302 49.1999 29.1796 48.3899 28.4679C47.5798 27.7562 47.1748 26.8746 47.1748 25.8123C47.1748 24.6864 47.6011 23.7941 48.4538 23.1355C49.3065 22.4663 50.4469 22.137 51.8645 22.137C53.0796 22.137 54.0815 22.3601 54.8595 22.8062V22.3388C54.8595 21.6271 54.5824 21.0323 54.0175 20.533C53.4526 20.0338 52.7918 19.7894 52.035 19.7894C50.8946 19.7894 49.9886 20.2675 49.3278 21.2341L47.5265 20.1081C48.5178 18.6741 49.9886 17.9624 51.9285 17.9624ZM49.2852 25.8442C49.2852 26.3753 49.509 26.8215 49.9673 27.172C50.415 27.5225 50.9479 27.7031 51.5554 27.7031C52.4187 27.7031 53.1862 27.3844 53.8576 26.7471C54.5291 26.1098 54.8702 25.3662 54.8702 24.5058C54.2307 24.0065 53.346 23.7516 52.2056 23.7516C51.3742 23.7516 50.6814 23.9534 50.1272 24.3464C49.5623 24.7607 49.2852 25.26 49.2852 25.8442Z" fill="#3C4043"></path>
  <path d="M67.9476 18.313L61.1262 33.9491H59.0158L61.5525 28.4786L57.0547 18.313H59.2823L62.5225 26.1098H62.5651L65.72 18.313H67.9476Z" fill="#3C4043"></path>
  <path d="M30.0819 21.4573C30.0819 20.7923 30.0222 20.156 29.9114 19.5442H21.3335V23.0496L26.2737 23.0506C26.0733 24.217 25.4285 25.2112 24.4404 25.8741V28.1483H27.3811C29.0982 26.5645 30.0819 24.2233 30.0819 21.4573Z" fill="#4285F4"></path>
  <path d="M24.4408 25.874C23.6222 26.4242 22.5681 26.7461 21.3349 26.7461C18.9527 26.7461 16.9319 25.1463 16.2082 22.99H13.1748V25.3354C14.6776 28.3075 17.7665 30.347 21.3349 30.347C23.8012 30.347 25.8732 29.5387 27.3814 28.1472L24.4408 25.874Z" fill="#34A853"></path>
  <path d="M15.9223 21.25C15.9223 20.6445 16.0236 20.0592 16.208 19.509V17.1636H13.1746C12.5532 18.3926 12.2036 19.7799 12.2036 21.25C12.2036 22.7201 12.5543 24.1074 13.1746 25.3364L16.208 22.991C16.0236 22.4408 15.9223 21.8555 15.9223 21.25Z" fill="#FABB05"></path>
  <path d="M21.3349 15.7531C22.681 15.7531 23.8865 16.2152 24.8383 17.1181L27.4443 14.523C25.8615 13.0539 23.7981 12.1521 21.3349 12.1521C17.7675 12.1521 14.6776 14.1916 13.1748 17.1637L16.2082 19.5092C16.9319 17.3528 18.9527 15.7531 21.3349 15.7531Z" fill="#E94235"></path>
</svg>
