<?xml version="1.0" encoding="UTF-8"?>
<svg xmlns="http://www.w3.org/2000/svg" width="133" height="48" viewBox="0 0 133 48" fill="none">
  <g clip-path="url(#clip0_1054_12487)">
    <path d="M41.0964 11.6123H27.0703V37.3412H41.0964V11.6123Z" fill="#FF5F00"></path>
    <path d="M27.9607 24.4767C27.9585 21.9988 28.5086 19.5529 29.5693 17.3241C30.63 15.0953 32.1736 13.1421 34.0832 11.6123C31.7184 9.71493 28.8785 8.535 25.8879 8.20734C22.8973 7.87969 19.8767 8.41752 17.1714 9.75939C14.4661 11.1013 12.1852 13.193 10.5894 15.7956C8.99369 18.3981 8.14746 21.4064 8.14746 24.4767C8.14746 27.547 8.99369 30.5553 10.5894 33.1579C12.1852 35.7604 14.4661 37.8522 17.1714 39.194C19.8767 40.5359 22.8973 41.0737 25.8879 40.7461C28.8785 40.4184 31.7184 39.2385 34.0832 37.3411C32.1736 35.8113 30.6301 33.8581 29.5693 31.6293C28.5086 29.4005 27.9585 26.9546 27.9607 24.4767Z" fill="#EB001B"></path>
    <path d="M60.0179 24.4767C60.018 27.5469 59.1719 30.5553 57.5762 33.1578C55.9806 35.7603 53.6997 37.8521 50.9945 39.194C48.2892 40.5359 45.2687 41.0737 42.2781 40.7461C39.2876 40.4184 36.4477 39.2385 34.083 37.3411C35.9909 35.8098 37.5332 33.8562 38.5938 31.6278C39.6543 29.3993 40.2054 26.9542 40.2054 24.4767C40.2054 21.9992 39.6543 19.5541 38.5938 17.3256C37.5332 15.0972 35.9909 13.1436 34.083 11.6123C36.4477 9.71492 39.2876 8.53499 42.2781 8.20734C45.2687 7.87969 48.2892 8.41755 50.9945 9.75943C53.6997 11.1013 55.9806 13.1931 57.5762 15.7956C59.1719 18.3982 60.018 21.4065 60.0179 24.4767Z" fill="#F79E1B"></path>
    <path d="M58.4888 34.6161V34.0893H58.6969V33.982H58.167V34.0893H58.3752V34.6161H58.4888ZM59.5176 34.6161V33.981H59.3552L59.1684 34.4178L58.9815 33.981H58.819V34.6161H58.9337V34.137L59.1089 34.55H59.2278L59.403 34.136V34.6161H59.5176Z" fill="#F79E1B"></path>
  </g>
  <path d="M91.9806 13.3107L84.3271 33.0186H79.3338L75.5675 17.2908C75.3388 16.3221 75.14 15.9672 74.4446 15.559C73.3092 14.8943 71.4343 14.2706 69.7847 13.8835L69.8967 13.3107H77.9345C78.959 13.3107 79.88 14.0468 80.1126 15.3201L82.1018 26.7241L87.0178 13.3104L91.9806 13.3107ZM111.545 26.5841C111.565 21.3826 104.881 21.0961 104.927 18.7725C104.941 18.0653 105.565 17.3135 106.931 17.1216C107.608 17.0259 109.473 16.953 111.588 18.0035L112.417 13.8243C111.281 13.3791 109.818 12.9506 107.999 12.9506C103.33 12.9506 100.044 15.6294 100.016 19.4652C99.9861 22.3024 102.362 23.8856 104.151 24.8284C105.992 25.7938 106.61 26.4142 106.603 27.2778C106.59 28.5998 105.135 29.1834 103.775 29.2064C101.4 29.2458 100.023 28.513 98.9244 27.962L98.0682 32.2795C99.1719 32.826 101.209 33.3028 103.321 33.3268C108.284 33.3268 111.53 30.6812 111.545 26.5841ZM123.875 33.0186L130.345 33.1732L124.43 13.3107H120.398C119.491 13.3107 118.726 13.8805 118.387 14.7566L111.299 33.0186H116.259L117.244 30.0749H123.304L123.875 33.0186ZM118.604 26.0357L121.09 18.6361L122.521 26.0357H118.604ZM98.7298 13.3107L94.8238 33.0186H90.1002L94.0078 13.3107H98.7298Z" fill="#1434CB"></path>
  <defs>
    <clipPath id="clip0_1054_12487">
      <rect width="67.9832" height="47.2105" fill="white"></rect>
    </clipPath>
  </defs>
</svg>
